<svg xmlns="http://www.w3.org/2000/svg" width="220" height="39" viewBox="0 0 242 39"><path d="M30.297 21.727s.312-2.34 1.168-2.102c.851.238 1.867.313 1.09 1.559-.782 1.246-2.028 2.105-2.258.543ZM31.934 18.766s1.324-6.313 2.957-6.47c1.632-.155 2.957-.155 2.566 1.485-.39 1.64-2.863 5.602-4.027 5.824-1.164.227-1.586-.425-1.496-.84ZM27.043 18.063s1.945-.856 2.879-4.442c.933-3.586.91-3.508 1.656-4.676.742-1.168 1.852-4.593.664-5.605-1.183-1.016-3.504 0-3.734 3.504-.11 2.523-.95 4.96-2.414 7.015-.875 1.09-1.399 5.32.949 4.204ZM21.324 15.371s1.246-.156 1.168-2.418c-.078-2.258-1.246-2.492-1.168-2.8.078-.313.63.542 1.172-2.966C23.04 3.68 23.106.332 21.32 0c-1.789-.332-2.879 3.195-2.64 5.613.234 2.414 1.398 4.485 1.32 5.02-.078.539-1.559 5.672 1.324 4.738ZM5.91 25.89a3.79 3.79 0 0 0-.547-3.816C3.887 20.281.926 20.22.691 20.598c-.23.379-.23 1.863 1.641 3.601 1.867 1.742 2.488 2.473 3.578 1.692Zm0 0" style="stroke: none; fill-rule: nonzero; fill: rgb(63, 156, 209); fill-opacity: 1;"></path><path d="M26.613 20.598c-4.043-.239-3.347-1.13-4.355-2.32-1.008-1.192-2.945-1.66-3.613-.88-.665.782-1.45-1.949-2.301-3.972-.856-2.024-.86-7.946-2.258-9.508a2.672 2.672 0 0 0-2.336-1.719S9.57 3.45 9.648 5.551c.075 2.105 1.399 8.304 2.797 10.43 1.403 2.128 2.106 7.343 1.246 8.59-.855 1.245-1.945 3.429-4.05 4.831-2.102 1.403.863 7.328 3.972 7.871 3.114.543 4.594-1.011 6.543-.457 1.946.559 1.227 1.48 2.676 2.102 1.453.621 6.441-1.961 6.129-6.496 0-2.649-.09-3.121.848-4.445.933-1.325.855-7.137-3.196-7.38Zm-4.207 5.023c.59-1.027 1.282-1.918 1.824-1.625.543.293.075 1.442-.503 2.031-.579.59-1.305.875-1.395 1.028-.09.152-.781 1.828-1.336.96 0 0-.293-.304.2-.878.491-.575.847-.387.913-.489.063-.101-.297.008.297-1.023Zm-3.285.125c.504-1.133.496-1.105.547-1.574.05-.465.484-1.586 1-1.606.516-.02.91.735.242 1.7a4.35 4.35 0 0 0-.844 2.34c0 .456-.746 1.675-1.128.914 0-.008-.329-.637.183-1.77ZM17.113 24.2c.242-.508.59-.23.98.153.395.382-.581 2.316-.581 2.316-.063.121-.301.215-.563-.098-.262-.308-.078-1.863.164-2.37Zm.2 3.582c-.387.36-.532-.129-.454-.617.075-.488.34-.297.61-.18.27.121-.157.797-.157.797Zm6.792 6.524c-.847.054-1.171.125-1.296-.305.132-.445.496-.785.945-.887.762-.156 1.547.457 1.527.598-.015.144-.328.535-1.176.594Zm2.41-6.848-.41.457c-.457.535-2.109 1.875-2.921 2.133-.813.254-2.07 1.46-2.13 1.969-.128.699-.113 1.418.048 2.113.253.809-1.762 1.734-2.692 1.219-.933-.516-.988-1.23-1.613-1.493-.625-.265-.629.125-1.137 0-.512-.128-1.273-1.87-.242-2.984.555-.687.672-.793.71-1.336.036-.543 1.278-2.047 2.388-1.262 1.105.786 1.109.41 1.62.313.512-.102 1.118.187 1.134.527.011.344.785-.199 1.437-.55.652-.352 1.91-1.801 2.582-2.012.59-.18.91-.164 1.074-.055.348.223.153.938.153.938Zm0 0" style="stroke: none; fill-rule: nonzero; fill: rgb(63, 156, 209); fill-opacity: 1;"></path><path d="M18.672 32.938s.098-.157.152-.11c.055.043.117.082.024.14-.098.06-.207.083-.176-.03ZM18.883 32.781s.293-.386.41-.347c.121.043.21.082.133.183-.078.102-.38.297-.457.274-.078-.024-.106-.082-.086-.11ZM18.57 32.574a.485.485 0 0 0 .34-.207c.18-.222.172-.215.266-.27.09-.054.273-.261.226-.367-.043-.105-.242-.113-.375.118a.914.914 0 0 1-.39.406c-.094.05-.262.32-.067.32ZM18.258 32.207s.09.031.16-.129 0-.21 0-.23c0-.016.027.054.18-.168.148-.223.257-.457.148-.528-.11-.074-.3.125-.363.301a3.207 3.207 0 0 0-.07.387c-.012.031-.282.34-.055.367Zm0 0" style="stroke: none; fill-rule: nonzero; fill: rgb(63, 156, 209); fill-opacity: 1;"></path><path d="M17.77 31.156a2.19 2.19 0 0 0-.141.809.914.914 0 0 1-.192.629 1.31 1.31 0 0 1-.457.207c-.187.027-.171.527.024.664s.351.078.457.18c.105.101.035.14.117.23.117.059.25.066.371.02a.455.455 0 0 0 .258-.266c.086-.18.098-.219.203-.277.106-.059.29-.457 0-.614-.293-.152-.191-.187-.226-.3-.032-.114-.149-.211-.223-.176-.07.031-.035-.184-.027-.348.011-.164.175-.57.152-.727-.023-.156-.059-.207-.098-.23-.035-.02-.207.066-.207.066M16.86 32.422a.301.301 0 0 0 .081-.281c-.043-.172-.246-.27-.273-.25-.027.02-.078.117 0 .297.074.18.09.265.191.234Zm0 0" style="stroke: none; fill-rule: nonzero; fill: rgb(63, 156, 209); fill-opacity: 1;"></path><path d="M60.957 8.496h-8v3.832h6.875v2.512h-6.875v7.625h-2.738V5.985h10.746ZM72.371 22.781h-2.633v-1.3c-.566.39-1.18.71-1.824.945-.687.25-1.41.375-2.14.367a4.39 4.39 0 0 1-1.645-.309 3.972 3.972 0 0 1-1.324-.859 3.86 3.86 0 0 1-.875-1.3 4.159 4.159 0 0 1-.317-1.63 3.808 3.808 0 0 1 2.422-3.78 9.502 9.502 0 0 1 2.172-.587c1.16-.18 2.328-.293 3.5-.344a3.649 3.649 0 0 0-.203-1.504 1.225 1.225 0 0 0-.402-.457 2.171 2.171 0 0 0-.606-.293 3.484 3.484 0 0 0-.773-.156 7.554 7.554 0 0 0-.891-.043 10.6 10.6 0 0 0-.941.098 5.179 5.179 0 0 0-.809.191c-.254.09-.496.203-.727.34-.25.16-.488.344-.707.543v-2.508c.352-.332.786-.57 1.254-.687a5.514 5.514 0 0 1 1.942-.39c1.683 0 2.898.253 3.652.765a3.571 3.571 0 0 1 1.477 1.61c.3.827.433 1.71.386 2.589Zm-2.633-6.535-1.734.121c-.54.047-1.074.13-1.606.235a4.12 4.12 0 0 0-1.14.414 1.835 1.835 0 0 0-.684.632c-.16.278-.238.594-.226.915 0 1.148.722 1.726 2.175 1.726a4.364 4.364 0 0 0 1.59-.312 7.084 7.084 0 0 0 1.625-.915ZM84.3 21.598c-.71.343-1.452.629-2.21.843a7.056 7.056 0 0 1-1.918.286 7.17 7.17 0 0 1-2.547-.43 5.28 5.28 0 0 1-1.934-1.266 5.637 5.637 0 0 1-1.21-2.047 8.256 8.256 0 0 1-.458-2.738 8.158 8.158 0 0 1 .457-2.738 5.726 5.726 0 0 1 1.239-2.067 5.332 5.332 0 0 1 1.933-1.312 6.643 6.643 0 0 1 2.54-.457c1.445.039 2.859.422 4.128 1.11v2.738h-.53c-1.274-.989-2.5-1.485-3.677-1.485a3.533 3.533 0 0 0-1.445.281c-.41.188-.77.47-1.047.82-.3.391-.52.84-.644 1.317a6.756 6.756 0 0 0-.215 1.77c0 1.32.281 2.343.851 3.058a2.985 2.985 0 0 0 2.5 1.074c.34 0 .672-.043 1-.12.328-.083.653-.188.961-.32.317-.13.621-.282.914-.458.285-.172.555-.36.817-.566h.527ZM96.633 17.266h-8.621c.039.43.168.847.383 1.222.21.36.492.668.828.914.367.282.78.493 1.222.625.485.149.989.223 1.496.22a8.26 8.26 0 0 0 4.516-1.321v2.867c-.809.297-1.637.535-2.477.715-.703.148-1.418.226-2.14.23a8.205 8.205 0 0 1-2.762-.433 5.655 5.655 0 0 1-2.074-1.254 5.472 5.472 0 0 1-1.3-2.035 7.912 7.912 0 0 1-.458-2.743 6.723 6.723 0 0 1 1.969-5.023 5.946 5.946 0 0 1 4.254-1.738 5.263 5.263 0 0 1 2.105.418c.625.273 1.184.68 1.637 1.187a5.338 5.338 0 0 1 1.059 1.828c.257.762.386 1.563.375 2.371Zm-2.59-2.286a4.01 4.01 0 0 0-.258-1.296 3.253 3.253 0 0 0-.601-.98 2.568 2.568 0 0 0-1.918-.833c-.399 0-.793.078-1.16.23-.372.149-.711.368-1 .645a3.59 3.59 0 0 0-.743.984c-.21.395-.355.817-.43 1.254ZM114.344 22.43c-.489.082-.91.144-1.274.191-.3.043-.605.07-.914.074-2.687 0-4.027-1.48-4.027-4.433v-5.239h-2.512v-2.34h2.512V6.532h2.633v4.153h3.59v2.34h-3.61v4.328c-.004.488.024.98.078 1.464.032.29.106.575.223.84.242.434.781.653 1.617.653a4.67 4.67 0 0 0 1.684-.454ZM127.348 22.46h-2.633V15.38a9.922 9.922 0 0 0-.106-1.598 2.373 2.373 0 0 0-.355-.988 1.251 1.251 0 0 0-.668-.496 3.298 3.298 0 0 0-1.066-.14c-.5.007-1 .109-1.461.304-.59.246-1.137.57-1.633.969v9.03h-2.637V5.274h2.637v5.684a6.182 6.182 0 0 1 3.648-1.312c2.844 0 4.262 1.601 4.258 4.808ZM141.031 17.266h-8.62c.038.43.167.847.382 1.222.21.36.496.668.832.914.36.27.766.473 1.2.602.484.152.988.223 1.495.219a8.236 8.236 0 0 0 4.516-1.32v2.87c-.813.301-1.649.547-2.496.735-.703.148-1.422.226-2.145.23a8.13 8.13 0 0 1-2.734-.433 5.639 5.639 0 0 1-2.078-1.254 5.393 5.393 0 0 1-1.301-2.035 7.803 7.803 0 0 1-.453-2.743 6.723 6.723 0 0 1 1.969-5.023 5.937 5.937 0 0 1 4.25-1.738 5.268 5.268 0 0 1 2.109.418c.625.273 1.184.68 1.637 1.187a5.466 5.466 0 0 1 1.058 1.828c.258.762.387 1.563.38 2.371Zm-2.59-2.286a4.122 4.122 0 0 0-.261-1.296 3.166 3.166 0 0 0-.598-.98 2.567 2.567 0 0 0-.863-.622 2.64 2.64 0 0 0-1.055-.215c-.402 0-.797.078-1.164.23a3.155 3.155 0 0 0-.996.641 3.621 3.621 0 0 0-.746.989 4.08 4.08 0 0 0-.43 1.253ZM164.664 21.195c-.82.399-1.656.75-2.516 1.055a10.495 10.495 0 0 1-3.188.5 9.363 9.363 0 0 1-3.401-.578 6.722 6.722 0 0 1-2.536-1.668 7.286 7.286 0 0 1-1.578-2.695 10.947 10.947 0 0 1-.543-3.586 10.517 10.517 0 0 1 .567-3.543c.344-1 .894-1.918 1.613-2.696a7.218 7.218 0 0 1 2.54-1.703 9.02 9.02 0 0 1 3.35-.597c1.989.058 3.938.578 5.692 1.515v3.016h-.598a8.036 8.036 0 0 0-5.226-2.098 5.257 5.257 0 0 0-2.121.418c-.621.27-1.172.68-1.614 1.195a5.41 5.41 0 0 0-1.02 1.918 8.336 8.336 0 0 0-.358 2.575c-.012.855.109 1.707.355 2.527a5.43 5.43 0 0 0 1.016 1.902c.441.52.992.93 1.617 1.203.676.29 1.41.434 2.148.418a7.57 7.57 0 0 0 5.211-2.082h.59ZM178.023 22.46h-2.636V15.38a9.922 9.922 0 0 0-.106-1.598 2.373 2.373 0 0 0-.355-.988 1.277 1.277 0 0 0-.664-.496 3.275 3.275 0 0 0-1.063-.14 3.936 3.936 0 0 0-1.469.304c-.59.246-1.136.57-1.632.969v9.03h-2.657V5.274h2.633v5.684a6.19 6.19 0 0 1 3.649-1.312c2.84 0 4.261 1.601 4.265 4.808ZM181.02 6.973c-.004-.258.05-.512.156-.746.101-.223.242-.426.414-.598.18-.172.387-.309.613-.406.461-.196.98-.196 1.442 0 .222.097.425.238.601.406.176.172.316.379.414.605.106.23.156.485.156.739 0 .25-.05.496-.148.726a1.935 1.935 0 0 1-1.008 1.012c-.23.105-.484.156-.738.156a1.847 1.847 0 0 1-.738-.148 2.107 2.107 0 0 1-.602-.41 1.813 1.813 0 0 1-.41-.598 1.837 1.837 0 0 1-.152-.738Zm3.253 15.488h-2.632V9.94h2.632ZM190.496 22.46h-2.633V5.274h2.633ZM204.48 22.46h-2.636v-.886a5.884 5.884 0 0 1-3.508 1.219 4.578 4.578 0 0 1-2.059-.453 4.34 4.34 0 0 1-1.554-1.309 6.252 6.252 0 0 1-.98-2.05 9.91 9.91 0 0 1-.345-2.688 8.116 8.116 0 0 1 .418-2.648c.25-.77.645-1.489 1.157-2.114a5.42 5.42 0 0 1 1.754-1.406 4.878 4.878 0 0 1 2.238-.504 7.5 7.5 0 0 1 1.45.14c.483.098.956.255 1.405.458V5.273h2.66Zm-2.636-9.862a7.837 7.837 0 0 0-1.25-.387 6.004 6.004 0 0 0-1.266-.133 3.237 3.237 0 0 0-1.367.281 2.719 2.719 0 0 0-1.012.82 3.594 3.594 0 0 0-.62 1.305 6.694 6.694 0 0 0-.212 1.762c0 2.668.903 4 2.711 4 .512 0 1.024-.098 1.5-.289a6.322 6.322 0 0 0 1.531-.91ZM215.785 12.785h-.453a7.56 7.56 0 0 0-1.824-.21c-.988 0-2.031.437-3.121 1.308v8.578h-2.637V9.406h2.637v1.965c1.304-.953 2.511-1.43 3.625-1.43.273 0 .543.016.812.043.293.032.621.075.973.133ZM228.238 17.266h-8.62c.034.43.163.847.378 1.222.215.356.496.668.832.914.363.27.77.473 1.203.602.485.152.985.226 1.492.219a8.236 8.236 0 0 0 4.516-1.32v2.87a18.8 18.8 0 0 1-2.473.711 10.99 10.99 0 0 1-2.144.235 8.232 8.232 0 0 1-2.734-.438 5.639 5.639 0 0 1-2.079-1.254 5.363 5.363 0 0 1-1.3-2.035 7.803 7.803 0 0 1-.454-2.742 6.729 6.729 0 0 1 1.97-5.023 5.928 5.928 0 0 1 4.245-1.739 5.237 5.237 0 0 1 2.114.422c.625.274 1.183.68 1.636 1.188a5.411 5.411 0 0 1 1.059 1.824 7.19 7.19 0 0 1 .375 2.371Zm-2.59-2.286a4.015 4.015 0 0 0-.261-1.296 3.166 3.166 0 0 0-.598-.98 2.514 2.514 0 0 0-.86-.622 2.672 2.672 0 0 0-1.058-.215 3.138 3.138 0 0 0-2.156.871c-.297.29-.543.621-.727.989a4.327 4.327 0 0 0-.425 1.253ZM241.426 22.46h-2.637V15.38a9.103 9.103 0 0 0-.105-1.598 2.423 2.423 0 0 0-.352-.988 1.27 1.27 0 0 0-.668-.496 3.26 3.26 0 0 0-1.062-.14 3.936 3.936 0 0 0-1.47.304 6.827 6.827 0 0 0-1.632.969v9.03h-2.633V9.942h2.633v1.016a6.182 6.182 0 0 1 3.648-1.312c2.844 0 4.266 1.601 4.266 4.808ZM55 30.484c.004.34-.063.676-.195.985-.133.293-.328.55-.57.758-.27.222-.579.39-.915.492-.383.12-.78.18-1.18.172h-.976v2.605h-1.21v-7.262h2.222a4.34 4.34 0 0 1 1.23.153c.32.093.617.25.88.457.23.191.41.437.523.715.125.289.191.605.191.925Zm-1.242 0c.004-.18-.028-.359-.09-.53a.878.878 0 0 0-.29-.376 1.367 1.367 0 0 0-.5-.219 3.102 3.102 0 0 0-.733-.07h-.961v2.512h.824c.289.004.574-.028.851-.102.2-.05.38-.148.536-.277a.958.958 0 0 0 .28-.418c.055-.16.083-.328.083-.496ZM60.176 35.496h-1.16v-3.121a4.273 4.273 0 0 0-.047-.707 1.053 1.053 0 0 0-.157-.434.539.539 0 0 0-.296-.218 1.502 1.502 0 0 0-.457-.063 1.744 1.744 0 0 0-.645.133c-.258.105-.504.25-.723.422v3.98h-1.164v-7.57h1.164v2.496a2.757 2.757 0 0 1 1.618-.578c1.246 0 1.879.703 1.879 2.117ZM61.11 28.668a.727.727 0 0 1 .066-.328.79.79 0 0 1 .183-.266.904.904 0 0 1 .27-.18.878.878 0 0 1 .316-.062c.11 0 .22.02.32.063a.938.938 0 0 1 .266.18.83.83 0 0 1 .188.91.847.847 0 0 1-.45.45.769.769 0 0 1-.324.069.862.862 0 0 1-.59-.25.7.7 0 0 1-.18-.258.738.738 0 0 1-.066-.328Zm1.433 6.848h-1.16v-5.54h1.16ZM64.902 35.496h-1.16v-7.578h1.16ZM65.816 28.668a.727.727 0 0 1 .067-.328.885.885 0 0 1 .457-.457.806.806 0 0 1 .637 0 .847.847 0 0 1 .45.445.838.838 0 0 1-.001.645.938.938 0 0 1-.18.265.814.814 0 0 1-.262.184.825.825 0 0 1-.652 0 .796.796 0 0 1-.27-.18.868.868 0 0 1-.18-.262.788.788 0 0 1-.066-.312Zm1.434 6.848h-1.16v-5.54h1.16ZM73.363 32.672c.004.402-.058.805-.187 1.187a2.8 2.8 0 0 1-.52.914c-.215.25-.476.454-.773.598a2.209 2.209 0 0 1-.973.215 3.02 3.02 0 0 1-.648-.066 2.546 2.546 0 0 1-.621-.215v3h-1.16v-8.328h1.16v.398c.234-.176.496-.313.773-.406.258-.09.531-.133.805-.133a1.83 1.83 0 0 1 1.594.758c.398.617.59 1.343.55 2.078Zm-1.191.027c0-1.168-.39-1.746-1.176-1.746a1.81 1.81 0 0 0-.66.133c-.246.102-.48.23-.695.39v2.805c.351.16.73.242 1.113.242.414.032.812-.152 1.062-.48.262-.398.387-.871.356-1.344ZM79.191 32.672a3.61 3.61 0 0 1-.183 1.187c-.117.332-.297.641-.524.914-.21.25-.476.454-.773.598a2.224 2.224 0 0 1-.95.246 3.02 3.02 0 0 1-.648-.066 2.564 2.564 0 0 1-.625-.211v3h-1.156v-8.363h1.156v.398c.239-.176.5-.313.778-.406a2.35 2.35 0 0 1 .804-.133 1.83 1.83 0 0 1 1.567.758c.402.617.593 1.343.554 2.078Zm-1.187.027c0-1.168-.395-1.746-1.18-1.746a1.846 1.846 0 0 0-.664.133c-.246.102-.48.23-.695.39v2.805c.351.157.73.239 1.113.242a1.24 1.24 0 0 0 1.07-.48 2.24 2.24 0 0 0 .356-1.344ZM79.79 28.668c0-.113.022-.227.07-.328a.885.885 0 0 1 .456-.457.788.788 0 0 1 .637 0 .838.838 0 0 1 .453 1.09.938.938 0 0 1-.18.265.814.814 0 0 1-.585.25.849.849 0 0 1-.778-.508.78.78 0 0 1-.074-.312Zm1.437 6.848h-1.165v-5.54h1.165ZM87.129 35.496h-1.164v-3.121a3.886 3.886 0 0 0-.043-.707 1.053 1.053 0 0 0-.156-.434.539.539 0 0 0-.297-.218 1.502 1.502 0 0 0-.457-.063 1.728 1.728 0 0 0-.645.133c-.258.11-.5.254-.719.43v3.98h-1.16v-5.52h1.16v.458a2.714 2.714 0 0 1 1.618-.579c1.25 0 1.879.704 1.879 2.118ZM92.762 33.207h-3.805a1.363 1.363 0 0 0 .535.953c.16.117.34.207.531.266.211.062.438.097.66.094.704.003 1.395-.2 1.989-.583v1.27c-.356.125-.719.23-1.09.309a4.828 4.828 0 0 1-.945.101 3.696 3.696 0 0 1-1.219-.187 2.464 2.464 0 0 1-.91-.559 2.287 2.287 0 0 1-.574-.914 3.431 3.431 0 0 1-.196-1.207 2.945 2.945 0 0 1 .864-2.215 2.6 2.6 0 0 1 1.875-.77c.316 0 .625.063.914.188.273.121.52.297.718.524.207.234.364.511.457.812.114.336.172.688.168 1.043Zm-1.145-1.012a1.684 1.684 0 0 0-.113-.57 1.363 1.363 0 0 0-.266-.43 1.12 1.12 0 0 0-.832-.367 1.289 1.289 0 0 0-.515.098c-.168.066-.325.16-.457.285a1.532 1.532 0 0 0-.329.457c-.093.172-.156.36-.187.55ZM101.438 29.344h-3.524v1.707h3.023v1.11H97.91v3.359h-1.215v-7.286h4.743ZM105.254 31.223h-.211a3.135 3.135 0 0 0-.809-.094 2.254 2.254 0 0 0-1.367.574v3.793h-1.164v-5.758h1.164v.856a2.763 2.763 0 0 1 1.957-.63c.125 0 .274.032.43.06ZM110.48 32.738c.004.403-.054.805-.18 1.188a2.577 2.577 0 0 1-.51.914 2.321 2.321 0 0 1-.806.594 2.788 2.788 0 0 1-2.113 0 2.277 2.277 0 0 1-.808-.59 2.648 2.648 0 0 1-.516-.914 4.125 4.125 0 0 1 0-2.383c.11-.336.281-.645.512-.914.222-.254.496-.457.808-.586a2.544 2.544 0 0 1 1.063-.211c.742-.04 1.46.281 1.93.863.437.586.656 1.309.62 2.04Zm-1.19 0c0-1.242-.458-1.863-1.368-1.863-.914 0-1.371.621-1.371 1.863-.004.262.027.52.086.774.05.207.14.406.261.586.11.156.254.285.426.37.184.094.387.137.59.134.207.003.41-.04.594-.125.172-.086.32-.215.43-.375.12-.176.207-.375.253-.586.067-.254.098-.516.098-.778ZM115.797 35.496h-1.176v-3.121c0-.238-.012-.473-.047-.707a1.006 1.006 0 0 0-.16-.434.535.535 0 0 0-.289-.218 1.519 1.519 0 0 0-.457-.063 1.765 1.765 0 0 0-.648.133c-.258.113-.5.258-.72.43v3.98h-1.16v-5.52h1.16v.458a2.705 2.705 0 0 1 1.618-.579c1.25 0 1.875.704 1.875 2.118ZM120.215 35.484c-.215.032-.403.063-.563.082a2.9 2.9 0 0 1-.41.032c-1.187 0-1.781-.649-1.781-1.953v-2.313h-1.106v-1.031h1.106v-1.824h1.164V30.3h1.582v1.031h-1.582v1.91c0 .215.012.434.04.649.01.129.042.254.093.37.105.192.347.286.71.286.259-.016.512-.082.747-.192ZM121.988 35.496h-1.16v-7.578h1.16ZM122.895 28.668a.878.878 0 0 1 .523-.785.832.832 0 0 1 .324-.028.821.821 0 0 1 .586.243.828.828 0 0 1 .184.91 1.027 1.027 0 0 1-.18.265.79.79 0 0 1-.266.184.783.783 0 0 1-.328.066.721.721 0 0 1-.324-.066.88.88 0 0 1-.27-.18.848.848 0 0 1-.25-.61Zm1.437 6.848h-1.164v-5.54h1.164ZM130.234 35.496h-1.164v-3.121a4.74 4.74 0 0 0-.043-.707 1.112 1.112 0 0 0-.156-.434.553.553 0 0 0-.297-.218 1.502 1.502 0 0 0-.457-.063 1.765 1.765 0 0 0-.648.133c-.254.11-.496.254-.715.43v3.98h-1.188v-5.52h1.164v.458a2.705 2.705 0 0 1 1.618-.579c1.25 0 1.879.704 1.879 2.118ZM135.867 33.207h-3.804a1.4 1.4 0 0 0 .167.54c.094.16.22.3.368.413.16.117.34.207.527.266.215.062.438.097.664.094.703.003 1.395-.2 1.988-.583v1.27c-.355.125-.722.23-1.09.309a4.828 4.828 0 0 1-.945.101 3.696 3.696 0 0 1-1.219-.187 2.464 2.464 0 0 1-.91-.559 2.287 2.287 0 0 1-.574-.914 3.348 3.348 0 0 1-.2-1.207 2.963 2.963 0 0 1 .868-2.215 2.6 2.6 0 0 1 1.875-.77c.313 0 .625.063.914.188.274.121.52.297.719.524.207.234.36.511.457.812.117.336.172.688.168 1.043Zm-1.144-1.012a1.684 1.684 0 0 0-.114-.57 1.258 1.258 0 0 0-.265-.43 1.096 1.096 0 0 0-.38-.273 1.14 1.14 0 0 0-.456-.094 1.302 1.302 0 0 0-.516.098c-.168.066-.32.16-.453.285a1.583 1.583 0 0 0-.328.457c-.094.172-.156.36-.188.55ZM146.336 35.496h-1.203V30.02l-1.684 3.57h-.793l-1.668-3.547v5.477h-1.144v-7.286h1.535l1.73 3.653 1.672-3.653h1.555ZM147.422 28.668a.727.727 0 0 1 .066-.328.92.92 0 0 1 .184-.266.938.938 0 0 1 .266-.18.827.827 0 0 1 .324-.062c.105 0 .215.02.312.063a.938.938 0 0 1 .266.18.816.816 0 0 1 .187.269.71.71 0 0 1 .067.324.84.84 0 0 1-.246.582.814.814 0 0 1-.914.184.728.728 0 0 1-.266-.18.759.759 0 0 1-.246-.586Zm1.433 6.848h-1.164v-5.54h1.164ZM154.762 35.496h-1.164v-3.121a4.273 4.273 0 0 0-.047-.707 1.048 1.048 0 0 0-.153-.434.567.567 0 0 0-.296-.218 1.519 1.519 0 0 0-.457-.063 1.728 1.728 0 0 0-.645.133c-.258.11-.5.254-.719.43v3.98h-1.164v-5.52h1.164v.458a2.694 2.694 0 0 1 1.614-.579c1.253 0 1.878.704 1.878 2.118ZM155.672 28.668c0-.113.023-.227.07-.328a.845.845 0 0 1 .774-.524c.109 0 .218.024.32.067a.925.925 0 0 1 .266.176.836.836 0 0 1 .18.27c.09.206.09.437 0 .644a.925.925 0 0 1-.177.265 1.04 1.04 0 0 1-.265.184.849.849 0 0 1-.653 0 .836.836 0 0 1-.515-.77Zm1.437 6.848h-1.164v-5.54h1.164ZM162.059 33.844c.004.258-.059.511-.176.734-.121.23-.29.426-.496.582a2.295 2.295 0 0 1-.742.36 3.458 3.458 0 0 1-.938.128 7.096 7.096 0 0 1-1.93-.457v-1.226c.61.355 1.293.57 2 .629.73 0 1.094-.215 1.094-.64a.461.461 0 0 0-.172-.403 1.865 1.865 0 0 0-.574-.203l-1.043-.22c-.914-.241-1.371-.757-1.371-1.542 0-.238.055-.473.164-.684.113-.21.27-.402.457-.55.207-.165.438-.29.688-.372.28-.09.578-.132.87-.132a3.1 3.1 0 0 1 1.547.414v1.113l-.406-.195-.34-.13c-.132-.05-.27-.09-.41-.113a2.209 2.209 0 0 0-.422-.042 1.79 1.79 0 0 0-.382.035 1.07 1.07 0 0 0-.305.117.634.634 0 0 0-.207.187.465.465 0 0 0-.07.25c0 .297.242.5.73.621l1.05.215c.395.07.759.262 1.04.543.234.274.36.621.344.98ZM165.871 35.484l-.559.082a2.9 2.9 0 0 1-.41.032c-1.187 0-1.78-.649-1.78-1.953v-2.313h-1.11v-1.031h1.11v-1.824h1.163V30.3h1.582v1.031h-1.582v1.91c-.004.215.008.434.031.649.012.129.047.254.102.37.102.192.34.286.71.286.259-.016.509-.082.743-.192ZM169.813 31.223h-.204a3.125 3.125 0 0 0-.804-.094 2.254 2.254 0 0 0-1.368.574v3.793h-1.16v-5.758h1.16v.856a2.763 2.763 0 0 1 1.958-.63c.132 0 .273.032.425.06ZM170.219 28.668c0-.113.023-.227.07-.328a.851.851 0 0 1 .774-.524c.109 0 .218.024.32.067a.925.925 0 0 1 .265.176.904.904 0 0 1 .18.27.782.782 0 0 1 .004.644.847.847 0 0 1-.445.45.814.814 0 0 1-.649-.001.836.836 0 0 1-.445-.442.78.78 0 0 1-.074-.312Zm1.437 6.848h-1.164v-5.54h1.145ZM177.262 33.207h-3.801a1.363 1.363 0 0 0 .535.953c.16.117.34.207.527.266.215.066.438.097.66.094.708.003 1.399-.2 1.993-.583v1.27c-.356.125-.723.23-1.09.309a4.828 4.828 0 0 1-.945.101 3.696 3.696 0 0 1-1.22-.187 2.464 2.464 0 0 1-.91-.559 2.287 2.287 0 0 1-.573-.914 3.526 3.526 0 0 1-.2-1.207 2.966 2.966 0 0 1 .871-2.215 2.6 2.6 0 0 1 1.875-.77c.317-.003.625.063.914.188.29.121.547.305.758.54.203.237.36.515.453.812.114.34.172.691.168 1.047Zm-1.14-1.012a1.897 1.897 0 0 0-.114-.57 1.438 1.438 0 0 0-.266-.43 1.11 1.11 0 0 0-.383-.273 1.077 1.077 0 0 0-.457-.094c-.351 0-.691.137-.949.383a1.759 1.759 0 0 0-.332.457c-.09.172-.152.36-.187.55ZM181.7 33.844c.003.258-.06.511-.177.734a1.68 1.68 0 0 1-.488.582 2.314 2.314 0 0 1-.746.36 3.458 3.458 0 0 1-.937.128 7.103 7.103 0 0 1-1.926-.457v-1.226c.61.355 1.293.57 1.996.629.73 0 1.098-.215 1.098-.64a.464.464 0 0 0-.176-.403 1.738 1.738 0 0 0-.574-.203l-1.043-.22c-.915-.245-1.368-.757-1.368-1.542-.004-.238.051-.469.157-.684.113-.21.27-.402.457-.55.207-.16.441-.286.687-.372a2.9 2.9 0 0 1 .875-.132 3.1 3.1 0 0 1 1.543.414v1.113l-.398-.195-.344-.145c-.133-.05-.27-.09-.41-.113a2.134 2.134 0 0 0-.418-.04 1.62 1.62 0 0 0-.387.036 1.248 1.248 0 0 0-.305.113.573.573 0 0 0-.199.188.446.446 0 0 0-.074.25c0 .297.242.504.727.62l1.054.216c.39.074.754.261 1.04.543.234.277.355.632.335.996ZM182.586 37.234h-.965l.871-3.285a.962.962 0 0 1 .719-.37c.3.03.578.175.77.413ZM190.668 35.496h-3.04v-.988h.915v-5.285h-.914v-.989h3.039v.989h-.914v5.285h.914ZM196.363 35.496h-1.16v-3.121a4.273 4.273 0 0 0-.047-.707 1.053 1.053 0 0 0-.156-.434.573.573 0 0 0-.297-.218 1.494 1.494 0 0 0-.453-.063 1.748 1.748 0 0 0-.648.133c-.258.113-.5.258-.723.43v3.98h-1.172v-5.52h1.16v.458a2.705 2.705 0 0 1 1.617-.579c1.25 0 1.88.704 1.88 2.118ZM201.531 35.113c-.312.153-.64.282-.976.375a3.217 3.217 0 0 1-1.97-.062 2.34 2.34 0 0 1-.85-.559 2.414 2.414 0 0 1-.54-.914c-.132-.39-.199-.805-.191-1.219a3.453 3.453 0 0 1 .191-1.195c.114-.34.297-.652.543-.914.239-.25.532-.45.852-.578.36-.14.738-.207 1.12-.203.642.02 1.267.187 1.83.488v1.219h-.255a2.68 2.68 0 0 0-1.617-.653 1.556 1.556 0 0 0-.637.125 1.227 1.227 0 0 0-.453.36 1.62 1.62 0 0 0-.285.582 2.912 2.912 0 0 0-.094.781c-.035.484.098.969.375 1.367.274.32.684.489 1.102.457.152.004.308-.011.457-.05.144-.036.289-.083.43-.141.136-.059.265-.129.394-.207.125-.074.242-.16.356-.25h.238Zm0 0" style="stroke: none; fill-rule: nonzero; fill: rgb(117, 117, 118); fill-opacity: 1;"></path></svg>